<?xml version="1.0" encoding="utf-8"?>
<!-- Generator: Adobe Illustrator 24.0.2, SVG Export Plug-In . SVG Version: 6.00 Build 0)  -->
<svg version="1.1" id="Capa_1" xmlns="http://www.w3.org/2000/svg" xmlns:xlink="http://www.w3.org/1999/xlink" x="0px" y="0px"
	 viewBox="0 0 595.28 200" style="enable-background:new 0 0 595.28 200;" xml:space="preserve">
<style type="text/css">
	.st0{fill-rule:evenodd;clip-rule:evenodd;fill:#FFFFFF;}
	.st1{fill:#FFFFFF;}
	.st2{fill-rule:evenodd;clip-rule:evenodd;}
</style>
<g>
	<path class="st0" d="M32.02,116.28c0,14.64,8.3,28.15,19.87,35.5l5.18,3.18c-3.27-0.28-4.71-0.77-9.12-0.77
		c1.68,1.46,1.1,1.03,3.59,1.72c1.2,0.32,3.66,0.86,4.9,1.18c23.46,5.81,126.48,22.58,148.51,24.41v-1.5
		c-3.94-0.09-7.09-1.94-11.37-2.28c1.59-2.19,13.65-4.26,13.65-18.96c0-12.84-8.95-26.45-19.57-33.54
		c-10.32-6.88-15.44-8.67-26.64-0.52c-1.66,1.2-2.47,1.42-3.1,3.72c8.39-4.02,20.86,3.35,25.24,6.6
		c16.53,12.26,17.22,35.87-0.22,35.87c-14.02,0-10.49-2.75-18.21-4.54c2.15,3.18,5.03,3.93,8.34,6.82l-86.57-14.3
		c-3.55-0.6-9.18-1.63-12.77-1.63l3.81-2.26c2.5-1.25,2.24-0.75,3.76-3.03c-2.26-1.1-3.61-0.86-6.06-2.3
		c-1.94-1.12-2.86-2.37-5.31-3.01c-2.75,1.85-4.36,4.54-9.1,4.54c-22.6,0-39.33-43.22-13.65-43.22c9.14,0,16.97,10.47,18.21,11.37
		c3.4-2.51,5.42-8.3,12.13-9.87c-1.44-6.13-16.15-13.65-22.75-13.65h-4.56C40.02,95.79,32.02,105.77,32.02,116.28L32.02,116.28z"/>
	<path class="st0" d="M139.73,70.01c9.96,4.77,17.42,8.26,26.02,16.47c2,1.91,3.05,3.65,4.88,5.72c1.79,1.98,3.1,3.74,4.54,6.11
		c2.28,3.76,5.87,9.85,6.28,14.94c-6.64,1.55-13.01,1.51-21.22,1.51c1.4,0.99-1.38-0.04,1.96,1.05c4.73,1.57,17.14,0.47,22.3,0.47
		c2.24-15.14-1.4-23.8-10.28-35.22c-6-7.7-20.66-20.38-30.85-15.03C141.38,67.09,140.35,67.71,139.73,70.01L139.73,70.01z"/>
	<path class="st0" d="M94.23,133.72c0,9.44,5.01,11.18,6.06,15.16c-4.75,0-6.82,0.77-10.62,0.77l14.43,5.29
		c15.74,4.17,22.19,5.25,37.95,7.57c3.01,0.43,5.31,1.46,7.55,0.02c-13.61-3.16-47.03-13.12-47.03-30.34
		c0-12.99,14.9-17.12,24.21-19.01l2.32-0.71c-8.24-1.96-17.8,1.96-23.57,5.25C101.11,120.26,94.23,127.12,94.23,133.72L94.23,133.72
		z"/>
	<path class="st0" d="M54.02,85.19c-0.95-3.59-1.66-1.35-9.7-6.21c-3.72-2.26-6.79-3.78-10.47-6.21
		c-7.31-4.84-19.35-16.41-1.05-16.41c7.68,0,12.71,1.53,19.72,1.53v-0.77c-3.07,0-3.38-0.32-5.91-0.9c-5.31-1.27-36.49-6.69-31,6.67
		c3.89,9.5,12.47,17.05,20.66,22.66c3.74,2.56,3.03,1.89,7.48,0.78C47.31,85.41,49.96,85.19,54.02,85.19L54.02,85.19z"/>
	<path class="st0" d="M120.76,34.36c0,2.92-8.79,7.5-18.08,1.42c-3.63-2.39-6.17-7.59-6.17-0.67c0,11.63,22.19,21.61,25.24,8.58
		c2.82-12.06-0.34-29.05-15.4-29.05c0.17,0.11,0.45,0.02,0.54,0.24c0.06,0.24,0.41,0.19,0.52,0.24c3.46,1.4,6.58,2.52,9.16,6.02
		C118.79,24.12,120.76,29.46,120.76,34.36L120.76,34.36z"/>
	<path class="st0" d="M65.42,70.01c4.19-4.84,9.22-29.11,16.69-31.09c0.62,2.75,0.41,2.43,2.26,3.78c1.72-3.57-0.13-6.58,4.43-11.59
		c1.38-1.48,2.77-1.85,1.7-2.92c-1.61-1.61-9.57,1.79-13.2,8.19C72.92,44.04,66.15,61.19,65.42,70.01L65.42,70.01z"/>
	<path class="st0" d="M43.42,131.44c0,4.73,16.64,7.14,22,7.59c-0.34-4.06-1.85-6.54-6.08-6.84c-5.48-0.39-7.48-0.43-12.13-1.5
		c0.43-5.14,3.85-2.82,7.59-6.06C51.22,124.93,43.42,128.07,43.42,131.44L43.42,131.44z"/>
	<path class="st0" d="M167.04,138.28v1.5c3.14,0,5.01,0,7.33,1.03c1.29,0.56,4.34,2.82,5.35,3.72c3.33,3.03,5.53,7.93,5.53,13.46
		c0,4.75-3.38,4.92-5.31,7.57c16.77,0,7.42-26.42-8.64-27.54C169.49,137.89,169.77,138.21,167.04,138.28L167.04,138.28z"/>
	<path class="st0" d="M103.33,107.94l-11.5-6.71c-0.47-0.32-1.18-0.88-1.7-1.33c-3.18-2.86,2.24,2.28-0.77-0.73
		c-2.9-2.9-4.24-4.82-5.76-8.66c-1.01-2.56-1.91-6.99-3.76-9.12c0.13,6.3,2.64,15.67,5.83,19.18
		C88.17,103.36,98.64,107.55,103.33,107.94L103.33,107.94z"/>
	<path class="st0" d="M81.33,126.13c2.97,0.99,0.99-0.17,0.28,1.65c-0.77,2.04-1.29-0.69-0.28,3.66c4.45,0,5.66-0.71,9.12-1.5
		c1.63-3.42-0.52-2,2.24-4.58c2.19-2.04,7.5-5.85,4.54-12.82c-0.58-1.4-0.62-1.35-1.48-2.32c0.73,8.69,0.62,14.64-10.62,15.14
		L81.33,126.13z"/>
	<path class="st0" d="M96.51,78.35c2.92,0.24,2.43,0.75,6.06,0.75c0.11-4.45,3.16-6.06,7.59-6.06c3.57,0-0.47,0.54,2.71,0.92
		c3.76,0.45-1.72-1.68,10.17-1.68C117.13,68.18,102.31,69.69,96.51,78.35L96.51,78.35z"/>
	<path class="st0" d="M128.35,81.38c0,5.14,5.35,6.67,9.07,8.37c3.35,1.53,9.18,4.43,12.92,5.29c-1.64-2.24-8-5.29-11.05-7.14
		c-3.25-1.96-4.84-3.72-7.29-6.36c-2.24-2.41-0.43-1.53-2.9-2.43C128.59,80.03,128.35,79.92,128.35,81.38L128.35,81.38z"/>
	<path class="st0" d="M84.36,148.88c2.15,0,2.28-2.92,2.28-5.29c-1.01,1.44-0.56,1.57-2.28,2.26c-1.16-4.34-7.93-5.72-12.13-6.06
		C74.3,143.68,78.55,148.88,84.36,148.88L84.36,148.88z"/>
	<path class="st0" d="M87.39,67.73c-7.72,0-5.38-1.83-9.85-3.03c3.27,4.88,11.91,7.48,15.35,3.22c1.89-2.37,2.45-6.21,1.74-8.92
		c-1.18-4.37,0.54-1.66-1.94-2.65C94.94,61,92.9,67.73,87.39,67.73L87.39,67.73z"/>
	<path class="st0" d="M138.22,56.36c-0.65-2.41-0.34-1.5-2.06-3.25c-1.07-1.1-2-2.06-3.12-2.97c-2-1.59-4.62-3.38-7.72-3.63
		c0.99,3.66,3.16,3.66,6.06,5.31C133.56,53.07,136.07,54.91,138.22,56.36L138.22,56.36z"/>
	<rect x="53.27" y="57.88" class="st0" width="2.28" height="0.75"/>
	<path class="st0" d="M81.33,126.13c-2.28,0.62-1.66,0-2.28,2.28L81.33,126.13z"/>
	<path class="st0" d="M79.82,80.63l0.21-0.24C80.04,80.42,79.74,80.54,79.82,80.63L79.82,80.63z"/>
	<path class="st1" d="M203.61,103.32h4.43v0.75c0,2.37,0.17,4.09,0.54,5.22c0.34,1.12,0.93,1.89,1.74,2.37
		c0.65,0.36,1.64,0.6,2.97,0.75c1.33,0.15,4.09,0.24,8.24,0.24c2.26,0,4-0.15,5.25-0.45c1.25-0.3,2.17-0.77,2.77-1.42
		c0.34-0.37,0.6-0.95,0.75-1.81c0.15-0.86,0.24-2.02,0.24-3.48c0-2.94-0.3-4.8-0.88-5.55c-0.6-0.75-1.76-1.2-3.53-1.33l-12.26-0.97
		c-3.68-0.28-6.19-1.2-7.59-2.75c-1.42-1.55-2.13-4.15-2.13-7.83c0-2.3,0.24-4.17,0.71-5.57c0.45-1.4,1.2-2.56,2.24-3.48
		c0.8-0.71,1.91-1.23,3.36-1.53c1.44-0.28,4-0.43,7.63-0.43h1.42c4.06,0,6.95,0.19,8.6,0.58c1.68,0.41,3.05,1.07,4.17,2.02
		c0.77,0.67,1.33,1.57,1.7,2.75c0.37,1.18,0.56,2.67,0.56,4.43c0,0.49-0.02,0.9-0.02,1.18c-0.02,0.26-0.02,0.52-0.04,0.73h-4.43
		v-0.99c0-1.46-0.06-2.58-0.26-3.35c-0.15-0.77-0.43-1.33-0.8-1.72c-0.56-0.54-1.55-0.93-2.95-1.14c-1.42-0.24-4.11-0.34-8.06-0.34
		c-4.09,0-6.67,0.47-7.72,1.38c-1.03,0.95-1.57,2.77-1.57,5.55c0,2.28,0.34,3.85,1.03,4.71c0.69,0.86,2,1.38,3.96,1.55l12.49,1.03
		c3.27,0.28,5.57,1.18,6.88,2.71c1.31,1.51,1.96,4.04,1.96,7.61c0,2.6-0.17,4.56-0.49,5.87c-0.34,1.29-0.9,2.39-1.68,3.27
		c-0.97,1.07-2.26,1.83-3.87,2.26c-1.63,0.45-4.6,0.67-8.9,0.67h-1.98c-3.66,0-6.24-0.19-7.76-0.56c-1.53-0.39-2.79-1.03-3.8-1.96
		c-0.99-0.86-1.72-2.02-2.19-3.46c-0.47-1.46-0.71-3.31-0.71-5.57V103.32z M246.4,116.24V76.55h4.43v39.69H246.4z M263.19,116.24
		V76.55h4.32v35.54H290v4.15H263.19z M286.78,76.55h4.69l12.69,35.59l12.71-35.59h4.67l-14.53,39.69h-5.68L286.78,76.55z
		 M329.8,116.24V76.55h27.85v4.19h-23.48v13.01h22.81v4.04h-22.81v14.3h23.48v4.15H329.8z M384.51,80.74h-12.67v15.91h12.67
		c3.31,0,5.48-0.41,6.49-1.25c1.03-0.82,1.55-2.28,1.55-4.39v-4.64c0-2.15-0.5-3.61-1.48-4.43
		C390.08,81.15,387.88,80.74,384.51,80.74L384.51,80.74z M367.47,116.24V76.55h17.91c4.47,0,7.55,0.67,9.22,1.98
		c1.68,1.33,2.52,3.68,2.52,7.08v6c0,2.09-0.41,3.72-1.27,4.9c-0.84,1.18-2.13,1.94-3.85,2.21c1.87,0.45,3.2,1.27,3.98,2.45
		c0.75,1.16,1.14,3.01,1.14,5.55v9.53h-4.58v-8.17c0-2.84-0.45-4.77-1.36-5.78c-0.9-0.99-2.64-1.48-5.27-1.48h-14.08v15.44H367.47z
		 M407.17,89.66c0-5.1,0.97-8.62,2.92-10.62c1.96-2,5.38-2.99,10.32-2.99h4.65c4.88,0,8.3,0.86,10.28,2.58
		c1.98,1.72,2.97,4.62,2.97,8.75v1.72h-4.54v-1.1c0-2.99-0.6-5.05-1.83-6.15c-1.25-1.1-3.64-1.66-7.23-1.66h-3.05
		c-2.41,0-4.15,0.15-5.25,0.43c-1.1,0.3-2,0.8-2.73,1.48c-0.73,0.69-1.25,1.57-1.55,2.67c-0.28,1.08-0.43,3.07-0.43,5.98v11.29
		c0,2.88,0.15,4.86,0.43,5.98c0.3,1.1,0.82,1.98,1.55,2.65c0.73,0.69,1.61,1.18,2.64,1.48c1.05,0.28,2.82,0.43,5.33,0.43h3.05
		c3.68,0,6.11-0.56,7.33-1.72c1.2-1.16,1.81-3.38,1.81-6.64c0-0.52-0.02-0.88-0.02-1.16c0-0.26-0.02-0.51-0.04-0.73h4.52v2.6
		c0,4.43-0.97,7.5-2.86,9.22c-1.91,1.72-5.4,2.58-10.38,2.58h-4.65c-4.94,0-8.36-0.99-10.32-2.99c-1.96-2-2.92-5.52-2.92-10.62
		V89.66z M453.06,102.16h17.2l-7.91-21.4h-1.42L453.06,102.16z M443.34,116.24l14.69-39.69h7.23L480,116.24h-4.54l-3.78-10.15
		h-20.08l-3.72,10.15H443.34z M487.01,103.32h4.43v0.75c0,2.37,0.17,4.09,0.54,5.22c0.34,1.12,0.95,1.89,1.76,2.37
		c0.62,0.36,1.61,0.6,2.94,0.75c1.33,0.15,4.09,0.24,8.24,0.24c2.26,0,4.02-0.15,5.27-0.45c1.25-0.3,2.15-0.77,2.77-1.42
		c0.32-0.37,0.58-0.95,0.73-1.81c0.17-0.86,0.24-2.02,0.24-3.48c0-2.94-0.3-4.8-0.88-5.55c-0.6-0.75-1.76-1.2-3.53-1.33l-12.26-0.97
		c-3.66-0.28-6.19-1.2-7.59-2.75c-1.42-1.55-2.11-4.15-2.11-7.83c0-2.3,0.21-4.17,0.69-5.57c0.45-1.4,1.21-2.56,2.24-3.48
		c0.79-0.71,1.93-1.23,3.38-1.53c1.42-0.28,3.98-0.43,7.61-0.43h1.42c4.08,0,6.95,0.19,8.6,0.58c1.68,0.41,3.05,1.07,4.19,2.02
		c0.75,0.67,1.33,1.57,1.68,2.75c0.36,1.18,0.56,2.67,0.56,4.43c0,0.49-0.02,0.9-0.02,1.18c0,0.26-0.02,0.52-0.04,0.73h-4.41v-0.99
		c0-1.46-0.09-2.58-0.26-3.35c-0.17-0.77-0.45-1.33-0.82-1.72c-0.56-0.54-1.53-0.93-2.95-1.14c-1.42-0.24-4.11-0.34-8.06-0.34
		c-4.09,0-6.67,0.47-7.7,1.38c-1.05,0.95-1.59,2.77-1.59,5.55c0,2.28,0.37,3.85,1.03,4.71c0.69,0.86,2,1.38,3.96,1.55l12.51,1.03
		c3.27,0.28,5.55,1.18,6.86,2.71c1.31,1.51,1.98,4.04,1.98,7.61c0,2.6-0.17,4.56-0.52,5.87c-0.34,1.29-0.88,2.39-1.68,3.27
		c-0.97,1.07-2.26,1.83-3.87,2.26c-1.63,0.45-4.6,0.67-8.9,0.67h-1.98c-3.65,0-6.23-0.19-7.76-0.56c-1.51-0.39-2.77-1.03-3.81-1.96
		c-0.99-0.86-1.72-2.02-2.19-3.46c-0.47-1.46-0.71-3.31-0.71-5.57V103.32z M529.8,116.24V76.55h27.87v4.19h-23.48v13.01H557v4.04
		h-22.81v14.3h23.48v4.15H529.8z"/>
	<g>
		<path class="st1" d="M294.88,144.42v0.83c0,3.74-0.82,6.44-2.46,8.09c-1.64,1.65-4.33,2.48-8.06,2.48h-2.6
			c-4.05,0-6.9-0.86-8.53-2.59s-2.44-4.77-2.44-9.13v-5.96c0-4.36,0.81-7.4,2.44-9.13c1.63-1.73,4.47-2.59,8.53-2.59h2.12
			c4.03,0,6.84,0.76,8.43,2.28c1.59,1.52,2.39,4.19,2.39,8.02v0.56h-7.66v-0.52c0-1.31-0.3-2.24-0.91-2.78
			c-0.6-0.54-1.65-0.81-3.16-0.81c-1.66,0-2.76,0.32-3.31,0.96c-0.55,0.64-0.83,2.19-0.83,4.65v4.73c0,2.44,0.28,3.98,0.83,4.62
			c0.55,0.64,1.66,0.96,3.31,0.96c1.55,0,2.62-0.29,3.21-0.88c0.59-0.58,0.88-1.62,0.88-3.12v-0.66H294.88z"/>
		<path class="st1" d="M299.04,138.13c0-4.36,0.81-7.4,2.44-9.13c1.63-1.73,4.47-2.59,8.52-2.59h3.76c4.06,0,6.92,0.87,8.55,2.6
			s2.45,4.78,2.45,9.12v5.96c0,4.35-0.82,7.39-2.45,9.12s-4.49,2.6-8.55,2.6h-3.76c-4.05,0-6.89-0.86-8.52-2.59
			s-2.44-4.77-2.44-9.13V138.13z M306.9,138.77v4.73c0,2.46,0.28,4,0.83,4.63c0.55,0.63,1.7,0.95,3.46,0.95h1.42
			c1.75,0,2.91-0.32,3.48-0.96s0.85-2.18,0.85-4.61v-4.73c0-2.44-0.28-3.99-0.85-4.64c-0.56-0.65-1.72-0.97-3.48-0.97h-1.42
			c-1.74,0-2.89,0.32-3.45,0.96C307.17,134.76,306.9,136.31,306.9,138.77z"/>
		<path class="st1" d="M329.96,155.47v-28.72h7.76v22.05h12.82v6.67H329.96z"/>
		<path class="st1" d="M352.56,138.13c0-4.36,0.81-7.4,2.44-9.13c1.63-1.73,4.47-2.59,8.52-2.59h3.76c4.06,0,6.92,0.87,8.55,2.6
			s2.45,4.78,2.45,9.12v5.96c0,4.35-0.82,7.39-2.45,9.12s-4.49,2.6-8.55,2.6h-3.76c-4.05,0-6.89-0.86-8.52-2.59
			s-2.44-4.77-2.44-9.13V138.13z M360.41,138.77v4.73c0,2.46,0.28,4,0.83,4.63c0.55,0.63,1.7,0.95,3.46,0.95h1.42
			c1.75,0,2.91-0.32,3.48-0.96s0.85-2.18,0.85-4.61v-4.73c0-2.44-0.28-3.99-0.85-4.64c-0.56-0.65-1.72-0.97-3.48-0.97h-1.42
			c-1.74,0-2.89,0.32-3.45,0.96C360.69,134.76,360.41,136.31,360.41,138.77z"/>
		<path class="st1" d="M406.37,126.75h11.22v28.72h-7.49v-21.1l-5.75,21.1h-7.68l-5.79-21.33v21.33h-7.49v-28.72h11.22l5.87,20.77
			L406.37,126.75z"/>
		<path class="st1" d="M423.72,126.75h13.47c3.54,0,6.03,0.5,7.47,1.51c1.44,1.01,2.16,2.73,2.16,5.16v1.85
			c0,1.62-0.39,2.87-1.18,3.74c-0.79,0.88-2,1.41-3.63,1.6c1.69,0.33,3.01,1.01,3.95,2.02c0.94,1.01,1.4,2.27,1.4,3.79v1.7
			c0,2.73-0.74,4.63-2.22,5.72c-1.48,1.09-4.19,1.63-8.13,1.63h-13.28V126.75z M431.36,133.12v5.09h5.43c0.82,0,1.41-0.15,1.76-0.46
			s0.53-0.81,0.53-1.5v-1.16c0-0.69-0.18-1.2-0.53-1.5s-0.94-0.46-1.76-0.46H431.36z M431.36,143.71v5.36h5.72
			c0.86,0,1.48-0.16,1.87-0.49c0.38-0.33,0.58-0.86,0.58-1.59v-1.2c0-0.73-0.19-1.26-0.58-1.59c-0.38-0.33-1.01-0.49-1.87-0.49
			H431.36z"/>
		<path class="st1" d="M452.29,155.47v-28.72h7.76v28.72H452.29z"/>
		<path class="st1" d="M463.68,155.47l8.24-28.72h11.82l8.04,28.72h-8.24l-1.29-5.02h-9.03l-1.31,5.02H463.68z M474.63,144.61h6.27
			l-2.85-11.9h-0.5L474.63,144.61z"/>
	</g>
</g>
<rect x="615.09" class="st2" width="220.83" height="200"/>
<g>
	<path class="st0" d="M638.21,120.74c0,16.1,9.12,30.94,21.84,39.03l5.7,3.5c-3.59-0.31-5.18-0.85-10.02-0.85
		c1.84,1.61,1.21,1.13,3.95,1.89c1.32,0.35,4.02,0.95,5.39,1.3c25.79,6.38,139.04,24.82,163.26,26.83v-1.65
		c-4.33-0.1-7.8-2.13-12.5-2.51c1.75-2.41,15.01-4.68,15.01-20.85c0-14.11-9.83-29.08-21.51-36.87
		c-11.35-7.56-16.97-9.53-29.29-0.57c-1.82,1.32-2.72,1.56-3.4,4.09c9.22-4.42,22.93,3.69,27.75,7.26
		c18.18,13.47,18.93,39.43-0.24,39.43c-15.41,0-11.54-3.03-20.02-4.99c2.36,3.5,5.53,4.33,9.17,7.49l-95.17-15.72
		c-3.9-0.66-10.09-1.8-14.04-1.8l4.18-2.48c2.74-1.37,2.46-0.83,4.14-3.33c-2.48-1.21-3.97-0.95-6.67-2.53
		c-2.13-1.23-3.15-2.6-5.84-3.31c-3.03,2.03-4.8,4.99-10,4.99c-24.84,0-43.23-47.51-15.01-47.51c10.05,0,18.65,11.51,20.02,12.5
		c3.74-2.76,5.96-9.12,13.33-10.85c-1.58-6.74-17.75-15.01-25.01-15.01h-5.01C647,98.21,638.21,109.18,638.21,120.74L638.21,120.74z
		"/>
	<path class="st0" d="M756.61,69.87c10.94,5.25,19.15,9.08,28.6,18.11c2.2,2.1,3.36,4.02,5.36,6.29c1.96,2.17,3.41,4.11,4.99,6.71
		c2.51,4.14,6.45,10.83,6.9,16.43c-7.3,1.7-14.3,1.66-23.33,1.66c1.54,1.09-1.51-0.05,2.15,1.16c5.2,1.73,18.84,0.52,24.51,0.52
		c2.46-16.64-1.54-26.17-11.3-38.72c-6.59-8.46-22.71-22.41-33.92-16.52C758.43,66.65,757.29,67.34,756.61,69.87L756.61,69.87z"/>
	<path class="st0" d="M706.59,139.9c0,10.38,5.51,12.29,6.67,16.67c-5.22,0-7.49,0.85-11.68,0.85l15.86,5.82
		c17.3,4.59,24.39,5.77,41.72,8.32c3.31,0.47,5.84,1.61,8.3,0.02c-14.96-3.47-51.7-14.42-51.7-33.35c0-14.28,16.38-18.82,26.62-20.9
		l2.55-0.78c-9.05-2.15-19.57,2.15-25.91,5.77C714.15,125.11,706.59,132.65,706.59,139.9L706.59,139.9z"/>
	<path class="st0" d="M662.39,86.55c-1.04-3.95-1.82-1.49-10.66-6.83c-4.09-2.48-7.47-4.16-11.51-6.83
		c-8.04-5.32-21.27-18.03-1.16-18.03c8.44,0,13.97,1.68,21.68,1.68v-0.85c-3.38,0-3.71-0.35-6.5-0.99
		c-5.84-1.39-40.11-7.35-34.08,7.33c4.28,10.45,13.71,18.74,22.72,24.91c4.11,2.81,3.33,2.08,8.22,0.85
		C655.01,86.79,657.92,86.55,662.39,86.55L662.39,86.55z"/>
	<path class="st0" d="M735.76,30.68c0,3.22-9.67,8.25-19.88,1.56c-3.99-2.62-6.78-8.34-6.78-0.73c0,12.79,24.39,23.76,27.75,9.43
		C739.94,27.67,736.47,9,719.92,9c0.19,0.12,0.5,0.02,0.59,0.26c0.07,0.26,0.45,0.21,0.57,0.26c3.81,1.54,7.23,2.77,10.07,6.62
		C733.58,19.42,735.76,25.29,735.76,30.68L735.76,30.68z"/>
	<path class="st0" d="M674.91,69.87c4.61-5.32,10.14-32.01,18.34-34.18c0.69,3.03,0.45,2.67,2.48,4.16
		c1.89-3.92-0.14-7.23,4.87-12.74c1.51-1.63,3.05-2.03,1.87-3.22c-1.77-1.77-10.52,1.96-14.51,9.01
		C683.16,41.31,675.72,60.18,674.91,69.87L674.91,69.87z"/>
	<path class="st0" d="M650.73,137.4c0,5.2,18.29,7.85,24.18,8.34c-0.38-4.47-2.03-7.19-6.69-7.52c-6.03-0.43-8.23-0.47-13.33-1.65
		c0.47-5.65,4.23-3.1,8.34-6.67C659.31,130.24,650.73,133.69,650.73,137.4L650.73,137.4z"/>
	<path class="st0" d="M786.63,144.92v1.65c3.45,0,5.51,0,8.06,1.13c1.42,0.62,4.77,3.1,5.89,4.09c3.66,3.33,6.07,8.72,6.07,14.8
		c0,5.22-3.71,5.41-5.84,8.32c18.44,0,8.15-29.05-9.5-30.28C789.32,144.49,789.63,144.85,786.63,144.92L786.63,144.92z"/>
	<path class="st0" d="M716.59,111.56l-12.65-7.37c-0.52-0.36-1.3-0.97-1.87-1.47c-3.5-3.14,2.46,2.5-0.85-0.8
		c-3.19-3.19-4.66-5.29-6.34-9.53c-1.11-2.81-2.1-7.68-4.14-10.02c0.14,6.93,2.91,17.23,6.41,21.09
		C699.92,106.53,711.43,111.14,716.59,111.56L716.59,111.56z"/>
	<path class="st0" d="M692.41,131.56c3.26,1.09,1.09-0.19,0.31,1.82c-0.85,2.25-1.42-0.75-0.31,4.02c4.89,0,6.22-0.78,10.02-1.65
		c1.8-3.76-0.57-2.2,2.46-5.04c2.41-2.25,8.25-6.43,4.99-14.09c-0.64-1.54-0.69-1.49-1.63-2.55c0.8,9.55,0.69,16.1-11.68,16.64
		L692.41,131.56z"/>
	<path class="st0" d="M709.09,79.04c3.22,0.26,2.67,0.83,6.67,0.83c0.12-4.89,3.48-6.67,8.34-6.67c3.92,0-0.52,0.59,2.98,1.02
		c4.14,0.5-1.89-1.84,11.18-1.84C731.76,67.86,715.48,69.51,709.09,79.04L709.09,79.04z"/>
	<path class="st0" d="M744.1,82.37c0,5.65,5.89,7.33,9.98,9.2c3.69,1.68,10.09,4.87,14.21,5.81c-1.8-2.46-8.79-5.81-12.15-7.85
		c-3.57-2.15-5.32-4.09-8.01-7c-2.46-2.65-0.47-1.68-3.19-2.67C744.36,80.88,744.1,80.76,744.1,82.37L744.1,82.37z"/>
	<path class="st0" d="M695.74,156.57c2.36,0,2.51-3.22,2.51-5.82c-1.11,1.58-0.62,1.73-2.51,2.48c-1.28-4.77-8.72-6.29-13.33-6.67
		C684.68,150.85,689.36,156.57,695.74,156.57L695.74,156.57z"/>
	<path class="st0" d="M699.07,67.36c-8.49,0-5.91-2.01-10.83-3.33c3.59,5.36,13.1,8.23,16.88,3.55c2.08-2.6,2.69-6.83,1.91-9.81
		c-1.3-4.8,0.59-1.82-2.13-2.91C707.37,59.96,705.12,67.36,699.07,67.36L699.07,67.36z"/>
	<path class="st0" d="M754.95,54.86c-0.71-2.65-0.38-1.65-2.27-3.57c-1.18-1.21-2.2-2.27-3.43-3.26c-2.2-1.75-5.08-3.71-8.49-3.99
		c1.09,4.02,3.47,4.02,6.67,5.84C749.82,51.24,752.59,53.27,754.95,54.86L754.95,54.86z"/>
	<rect x="661.56" y="56.54" class="st0" width="2.5" height="0.83"/>
	<path class="st0" d="M692.41,131.56c-2.51,0.69-1.82,0-2.51,2.51L692.41,131.56z"/>
	<path class="st0" d="M690.75,81.54l0.24-0.26C690.99,81.31,690.66,81.45,690.75,81.54L690.75,81.54z"/>
</g>
<g>
</g>
<g>
</g>
<g>
</g>
<g>
</g>
<g>
</g>
<g>
</g>
</svg>
